PathFileType	4	(X/Y/Z)	./resultDataOpenSim/trcMotMarkerGrf/sub09/qtm-12-06.trc
DataRate	CameraRate	NumFrames	NumMarkers	Units	OrigDataRate	OrigDataStartFrame	OrigNumFrames
250.000000	250.000000	11	24	m	250.000000	1	480
Frame#	Time	L.Toe.Tip			R.Toe.Tip			L.Ankle.Lat			R.Ankle.Lat			L.Ankle.Med			R.Ankle.Med			L.Heel			R.Heel			L.Knee.Lat			R.Knee.Lat			L.Knee.Med			R.Knee.Med			L.Thigh.Upper			R.Thigh.Upper			L.ASIS			R.ASIS			V.Sacral			L.Acromium			R.Acromium			C7			L.Elbow			R.Elbow			L.Wrist.Lat			R.Wrist.Lat
		X1	Y1	Z1	X2	Y2	Z2	X3	Y3	Z3	X4	Y4	Z4	X5	Y5	Z5	X6	Y6	Z6	X7	Y7	Z7	X8	Y8	Z8	X9	Y9	Z9	X10	Y10	Z10	X11	Y11	Z11	X12	Y12	Z12	X13	Y13	Z13	X14	Y14	Z14	X15	Y15	Z15	X16	Y16	Z16	X17	Y17	Z17	X18	Y18	Z18	X19	Y19	Z19	X20	Y20	Z20	X21	Y21	Z21	X22	Y22	Z22	X23	Y23	Z23	X24	Y24	Z24

1	0	-1.4989159	0.03769287	-0.014645511	-1.0421493	0.0772318	0.1284496	-1.6514548	0.07649506	-0.042947458	-1.1914898	0.077995463	0.14832766	-1.6213337	0.093952675	0.049664365	-1.1758443	0.11495384	0.057972765	NaN	NaN	NaN	-1.2466017	0.045208124	0.089486019	-1.5209598	0.473364	-0.10366454	-1.194415	0.53563507	0.19101611	-1.5183825	0.47400919	0.022280851	-1.1928994	0.51675497	0.065040261	-1.423618	0.88601477	-0.15281983	-1.4003585	0.88547529	0.22217639	-1.3213699	0.95815723	-0.093667647	-1.3190744	0.96675176	0.14618002	-1.4789842	1.028113	0.032905897	-1.2693406	1.4022034	-0.13669433	-1.3077029	1.4261309	0.18836082	-1.348932	1.4703852	0.0208009	-1.3892836	1.043583	-0.21187971	-1.4923009	1.1160258	0.28376647	-1.150879	0.91060616	-0.18727005	-1.3749033	0.86582299	0.30474444
2	0.004	-1.4996495	0.037107608	-0.013489663	-1.0236607	0.079557298	0.12923866	-1.6512768	0.077133979	-0.042496338	-1.1730485	0.077020002	0.14868612	-1.6204307	0.094631049	0.04980781	-1.1581243	0.11447339	0.058381057	NaN	NaN	NaN	-1.2272524	0.043099473	0.089770323	-1.5185401	0.47343972	-0.10382489	-1.190582	0.53415619	0.19077262	-1.5162152	0.47413092	0.022307893	-1.1857102	0.51567608	0.065467591	-1.4184572	0.88482687	-0.15163634	-1.3942888	0.88396635	0.22218254	-1.3154075	0.95683769	-0.093877905	-1.3131097	0.96530417	0.1462078	-1.4731784	1.0266638	0.032476869	-1.2636301	1.4010717	-0.13639913	-1.3024439	1.424718	0.18875082	-1.3432477	1.4692389	0.021935506	-1.3825417	1.0419999	-0.21193384	-1.4862071	1.1142089	0.28334143	-1.143032	0.9110476	-0.18676472	-1.3694459	0.86428159	0.3048896
3	0.008	-1.5000888	0.036723747	-0.012790884	-1.0051944	0.082080675	0.13003509	-1.6510868	0.077801919	-0.042115355	-1.1547683	0.076171169	0.14904107	-1.6198469	0.095229249	0.050056433	-1.1405634	0.11409913	0.058824765	NaN	NaN	NaN	-1.2079968	0.04112217	0.090067226	-1.516139	0.47351592	-0.103982	-1.1857708	0.53278596	0.19076747	-1.5141197	0.47423256	0.022363475	-1.1785617	0.51455955	0.065844376	-1.4132589	0.8836623	-0.15050255	-1.3883389	0.88242386	0.22218219	-1.3094455	0.95554587	-0.09406204	-1.3070947	0.96385254	0.14622936	-1.4675004	1.0251778	0.031757727	-1.2579054	1.3999133	-0.13609458	-1.2971086	1.4233056	0.18911727	-1.3377011	1.4680777	0.022754904	-1.3758014	1.0403951	-0.21202636	-1.4802431	1.1124439	0.28301395	-1.1352268	0.91144995	-0.18623753	-1.3640582	0.86270709	0.30504461
4	0.012	-1.5002052	0.03656192	-0.012586822	-0.98677412	0.084910667	0.13079126	-1.6508822	0.078519728	-0.041835365	-1.136718	0.075527122	0.14941176	-1.6200964	0.09562003	0.050612167	-1.1232081	0.11390903	0.059321419	NaN	NaN	NaN	-1.1888869	0.039362524	0.090376846	-1.5137055	0.47357996	-0.10412702	-1.1799113	0.53151408	0.19100885	-1.5119847	0.47429901	0.022449459	-1.1714609	0.51337723	0.066147575	-1.4079377	0.88255289	-0.14965956	-1.3824638	0.88083804	0.22218095	-1.3034699	0.95428344	-0.094211866	-1.301007	0.96239007	0.14624327	-1.4618985	1.0236496	0.030850831	-1.2521459	1.3987221	-0.13577753	-1.2916797	1.4218909	0.18947035	-1.3322985	1.4668958	0.023116326	-1.3690528	1.038772	-0.21214938	-1.4744308	1.1107485	0.28280898	-1.127471	0.91178448	-0.18568728	-1.3587391	0.86108076	0.30521813
5	0.016	-1.5001526	0.036519304	-0.012634626	-0.96855513	0.088028888	0.13143423	-1.6506588	0.079289498	-0.041643477	-1.1189331	0.075111112	0.14982494	-1.6215298	0.095727823	0.051620866	-1.1060593	0.11394412	0.059864782	NaN	NaN	NaN	-1.1699862	0.037849337	0.090703142	-1.511149	0.47361704	-0.10424706	-1.1735541	0.53025014	0.19135486	-1.50959	0.47433744	0.022522399	-1.1644088	0.51211675	0.066390978	-1.4024586	0.88150926	-0.14923761	-1.3765685	0.87920871	0.22218569	-1.2974744	0.95302931	-0.094337186	-1.2948586	0.96091093	0.14625265	-1.456211	1.0220999	0.030134918	-1.246341	1.3975131	-0.13545244	-1.2861921	1.4204704	0.18982973	-1.3269025	1.4656907	0.023191073	-1.3622952	1.0371505	-0.21226308	-1.4687121	1.1090932	0.28268814	-1.1197648	0.91203612	-0.18513071	-1.3534276	0.85941939	0.30541007
6	0.02	-1.5000617	0.036506167	-0.012731061	-0.95077641	0.091374495	0.13197636	-1.6504078	0.080098154	-0.041511591	-1.1014259	0.074917597	0.15029337	-1.6236223	0.095706398	0.052850861	-1.0891399	0.11420482	0.060436273	NaN	NaN	NaN	-1.1513499	0.036569528	0.091071525	-1.5083996	0.47362342	-0.10433994	-1.1671407	0.52893239	0.19168747	-1.5068035	0.47436689	0.022526644	-1.157415	0.5107794	0.066597892	-1.3968643	0.88050504	-0.14909842	-1.3706246	0.87753224	0.22219777	-1.2914578	0.95176537	-0.094451543	-1.2886668	0.95942013	0.1462629	-1.4503541	1.0205447	0.029819519	-1.2404921	1.3963037	-0.1351204	-1.2806723	1.4190398	0.19020531	-1.321324	1.464474	0.023417162	-1.3555248	1.035544	-0.21233372	-1.463016	1.1074269	0.28261885	-1.1121111	0.91220422	-0.18458341	-1.348053	0.85776049	0.30560874
7	0.024	-1.4999796	0.036485041	-0.012801403	-0.93359352	0.094924012	0.13252769	-1.6501232	0.080932664	-0.041422819	-1.0842018	0.074938558	0.15081311	-1.6251876	0.095870569	0.05377943	-1.0725215	0.11465557	0.061019871	NaN	NaN	NaN	-1.1330143	0.035495255	0.091539431	-1.5054361	0.47360293	-0.10441874	-1.1608266	0.52754978	0.19195428	-1.5036936	0.47438815	0.022454139	-1.1504976	0.5093836	0.066773537	-1.3912113	0.87950595	-0.14903645	-1.3646362	0.87581766	0.22222225	-1.285424	0.95049851	-0.094559169	-1.2824348	0.95793615	0.14627888	-1.4443729	1.0189841	0.029813506	-1.2346166	1.3951044	-0.13477284	-1.2751194	1.4176006	0.19059886	-1.3154605	1.4632764	0.024160393	-1.3487342	1.0339532	-0.21233987	-1.4572919	1.1057141	0.28261328	-1.1045179	0.91229886	-0.18405226	-1.3425836	0.85612689	0.30580215
8	0.028	-1.4999077	0.036448026	-0.012845748	-0.91700155	0.098665249	0.13316122	-1.6497996	0.081789731	-0.041378215	-1.0672789	0.075170205	0.15137203	-1.6255373	0.096395952	0.05410653	-1.0562807	0.11524862	0.061608011	NaN	NaN	NaN	-1.1149875	0.034599017	0.092199313	-1.5022782	0.47355883	-0.10450212	-1.1546068	0.52610142	0.19214892	-1.5004122	0.47438594	0.02234241	-1.1436542	0.50796142	0.066910157	-1.3855286	0.8784951	-0.14891792	-1.3585901	0.87408809	0.22226437	-1.2793786	0.94925039	-0.094655582	-1.2761476	0.95647345	0.1463014	-1.4383341	1.0174103	0.029949139	-1.2287322	1.3939188	-0.13440191	-1.2695195	1.4161624	0.19100676	-1.3093747	1.462104	0.025350608	-1.3419174	1.0323716	-0.21226257	-1.4515013	1.1039445	0.28269167	-1.0969863	0.91233166	-0.18353853	-1.3370238	0.8545166	0.30598765
9	0.032	-1.4998367	0.036397098	-0.012884642	-0.90092631	0.10255143	0.13384501	-1.649426	0.082670555	-0.041395496	-1.0507078	0.075595505	0.15195424	-1.6248707	0.097221419	0.053927958	-1.0404675	0.11594666	0.062198038	NaN	NaN	NaN	-1.0972742	0.033859835	0.093123079	-1.4989665	0.47348624	-0.10460353	-1.1484214	0.5245857	0.19228867	-1.4970098	0.47434724	0.022223607	-1.1368509	0.50654233	0.0669992	-1.3798197	0.87747002	-0.14868878	-1.352468	0.87236356	0.22231925	-1.2733192	0.94802994	-0.094738266	-1.2697938	0.95503485	0.14632859	-1.4322592	1.0158176	0.030137071	-1.2228416	1.3927438	-0.13401308	-1.263864	1.4147335	0.19142488	-1.3032474	1.4609239	0.026542379	-1.3350783	1.0307992	-0.21209473	-1.4456182	1.1021356	0.28281335	-1.0895049	0.9123078	-0.18304054	-1.3313927	0.85291667	0.30616774
10	0.036	-1.4997607	0.036340164	-0.01293125	-0.88532282	0.10651424	0.13451042	-1.6489866	0.083575655	-0.041500564	-1.0345711	0.076167979	0.15254143	-1.6236699	0.09821102	0.053464109	-1.0251069	0.11672649	0.062785991	NaN	NaN	NaN	-1.0799302	0.033272979	0.094262158	-1.4955247	0.47336791	-0.10472435	-1.1422268	0.52301622	0.19239709	-1.493453	0.47426494	0.022103425	-1.130055	0.50513749	0.067033004	-1.3740723	0.87643029	-0.1483693	-1.346238	0.8706523	0.22238179	-1.2672325	0.94682522	-0.094813306	-1.2633743	0.95361766	0.14636338	-1.4261382	1.0142065	0.030356317	-1.2169356	1.3915727	-0.13361873	-1.2581529	1.4133139	0.1918502	-1.2972176	1.4597113	0.027384031	-1.3282333	1.0292495	-0.21186288	-1.4396258	1.1003089	0.28286722	-1.0820643	0.91222367	-0.18255333	-1.3257094	0.85131388	0.30634439
11	0.04	-1.4996784	0.03628971	-0.012986152	-0.87019495	0.11048773	0.13510772	-1.6484739	0.08450657	-0.041707838	-1.0189302	0.076836466	0.15312485	-1.6222723	0.099272981	0.052865815	-1.010208	0.11756961	0.063360933	NaN	NaN	NaN	-1.0630634	0.032851127	0.095455881	-1.4919254	0.4731855	-0.10485673	-1.1359877	0.52143259	0.19250711	-1.4897412	0.47413676	0.021978374	-1.1232663	0.50374387	0.067009883	-1.3682682	0.87537606	-0.1480263	-1.3398633	0.86895029	0.22245448	-1.2611059	0.94562274	-0.094888892	-1.2568942	0.95221882	0.14641395	-1.4199556	1.0125863	0.030609419	-1.2109964	1.3903998	-0.13321966	-1.2523882	1.4118955	0.19227998	-1.291293	1.4584792	0.027882829	-1.3214018	1.0277396	-0.21162038	-1.4335026	1.0984485	0.28275752	-1.074666	0.91207045	-0.18206789	-1.3199817	0.84970121	0.30651766
